<?xml version="1.0" encoding="UTF-8" standalone="no"?>
<!-- Created with Inkscape (http://www.inkscape.org/) -->

<svg
   version="1.1"
   id="svg766"
   width="872"
   height="320"
   viewBox="0 0 872 320"
   sodipodi:docname="Level_1_2.svg"
   inkscape:version="1.1.2 (b8e25be833, 2022-02-05)"
   xmlns:inkscape="http://www.inkscape.org/namespaces/inkscape"
   xmlns:sodipodi="http://sodipodi.sourceforge.net/DTD/sodipodi-0.dtd"
   xmlns="http://www.w3.org/2000/svg"
   xmlns:svg="http://www.w3.org/2000/svg">
  <defs
     id="defs770" />
  <sodipodi:namedview
     id="namedview768"
     pagecolor="#ffffff"
     bordercolor="#666666"
     borderopacity="1.0"
     inkscape:pageshadow="2"
     inkscape:pageopacity="0.0"
     inkscape:pagecheckerboard="0"
     showgrid="false"
     inkscape:zoom="1.9575688"
     inkscape:cx="424.25073"
     inkscape:cy="129.75278"
     inkscape:window-width="1920"
     inkscape:window-height="1009"
     inkscape:window-x="-8"
     inkscape:window-y="-8"
     inkscape:window-maximized="1"
     inkscape:current-layer="g772" />
  <g
     inkscape:groupmode="layer"
     inkscape:label="Image"
     id="g772">
    <path
       style="fill:#000000"
       d="m 112,96 h 112 v 8 H 112 Z"
       id="path4437" />
    <path
       style="fill:#000000"
       d="m 248,112 h 112 v 8 H 248 Z"
       id="path4435" />
    <path
       style="fill:#000000"
       d="m 696,240 h 24 v -72 h -72 v -4 -4 h 88 v 32 h 24 v 16 h -24 v 32 h 24 v 8 h -64 z"
       id="path4433" />
    <path
       style="fill:#000000"
       d="m 480,280 h 160 v -16 h 32 v 16 h 112 v -16 h 32 v 16 h 24 v -64 h -56 v -4 -4 h 56 v -40 h -72 v -8 h 72 V 104 H 584 V 32 H 32 v 40 h 56 v 8 H 32 v 56 h 416 v -16 h 8 v 16 h 32 v -16 h 8 v 16 h 60 60 v 56 h 16 v 24 h 40 v 16 h -32 v -8 h -24 v 24 H 584 V 176 H 344 v 72 H 312 V 176 H 32 v 104 h 416 v 8 h 32 z"
       id="path4431" />
  </g>
</svg>
