<?xml version="1.0" encoding="UTF-8" standalone="no"?>
<!-- Created with Inkscape (http://www.inkscape.org/) -->

<svg
   version="1.1"
   id="svg396"
   width="872"
   height="320"
   viewBox="0 0 872 320"
   sodipodi:docname="Level_1_Col.svg"
   inkscape:version="1.1.2 (b8e25be833, 2022-02-05)"
   xmlns:inkscape="http://www.inkscape.org/namespaces/inkscape"
   xmlns:sodipodi="http://sodipodi.sourceforge.net/DTD/sodipodi-0.dtd"
   xmlns:xlink="http://www.w3.org/1999/xlink"
   xmlns="http://www.w3.org/2000/svg"
   xmlns:svg="http://www.w3.org/2000/svg">
  <defs
     id="defs400" />
  <sodipodi:namedview
     id="namedview398"
     pagecolor="#505050"
     bordercolor="#eeeeee"
     borderopacity="1"
     inkscape:pageshadow="0"
     inkscape:pageopacity="0"
     inkscape:pagecheckerboard="0"
     showgrid="false"
     inkscape:zoom="1.2247706"
     inkscape:cx="436"
     inkscape:cy="160.02996"
     inkscape:window-width="2560"
     inkscape:window-height="1369"
     inkscape:window-x="-8"
     inkscape:window-y="-8"
     inkscape:window-maximized="1"
     inkscape:current-layer="g402" />
  <g
     inkscape:groupmode="layer"
     inkscape:label="Image"
     id="g402">
    <image
       width="872"
       height="320"
       preserveAspectRatio="none"
       style="image-rendering:optimizeSpeed"
       xlink:href="Level_1_Col.png"
       id="image404" />
    <path
       style="fill:#000000"
       d="m 112,100 v -4 h 56 56 v 4 4 h -56 -56 z"
       id="path501" />
    <path
       style="fill:#000000"
       d="m 248,116 v -4 h 56 56 v 4 4 h -56 -56 z"
       id="path499" />
    <path
       style="fill:#000000"
       d="m 696,244 v -4 h 12 12 v -36 -36 h -36 -36 v -4 -4 h 44 44 v 16 16 h 12 12 v 8 8 h -12 -12 v 16 16 h 12 12 v 4 4 h -32 -32 z"
       id="path497" />
    <path
       style="fill:#000000"
       d="m 480,292 v -12 h 80 80 v -8 -8 h 16 16 v 8 8 h 56 56 v -8 -8 h 16 16 v 8 8 h 12 12 v -32 -32 h -28 -28 v -4 -4 h 28 28 v -20 -20 h -36 -36 v -4 -4 h 36 36 V 132 104 H 712 584 V 68 32 H 308 32 v 20 20 h 28 28 v 4 4 H 60 32 v 28 28 h 208 208 v -8 -8 h 4 4 v 8 8 h 16 16 v -8 -8 h 4 4 v 8 8 h 60 60 v 28 28 h 8 8 v 12 12 h 20 20 v 8 8 h -16 -16 v -4 -4 h -12 -12 v 12 12 H 600 584 V 212 176 H 464 344 v 36 36 H 328 312 V 212 176 H 172 32 v 52 52 h 208 208 v 12 12 h 16 16 z"
       id="path495" />
    <path
       style="fill:#000000"
       d="M 0,160 V 0 H 436 872 V 160 320 H 436 0 Z"
       id="path406" />
  </g>
</svg>
