<?xml version="1.0" encoding="UTF-8" standalone="no"?>
<!-- Created with Inkscape (http://www.inkscape.org/) -->

<svg
   version="1.1"
   id="svg9"
   width="840"
   height="288"
   viewBox="0 0 840 288"
   sodipodi:docname="Level_1_Col.svg"
   inkscape:version="1.1.2 (b8e25be833, 2022-02-05)"
   xmlns:inkscape="http://www.inkscape.org/namespaces/inkscape"
   xmlns:sodipodi="http://sodipodi.sourceforge.net/DTD/sodipodi-0.dtd"
   xmlns="http://www.w3.org/2000/svg"
   xmlns:svg="http://www.w3.org/2000/svg">
  <defs
     id="defs13" />
  <sodipodi:namedview
     id="namedview11"
     pagecolor="#505050"
     bordercolor="#eeeeee"
     borderopacity="1"
     inkscape:pageshadow="0"
     inkscape:pageopacity="0"
     inkscape:pagecheckerboard="0"
     showgrid="false"
     inkscape:zoom="2.3478564"
     inkscape:cx="322.54073"
     inkscape:cy="196.58017"
     inkscape:window-width="2560"
     inkscape:window-height="1369"
     inkscape:window-x="-8"
     inkscape:window-y="-8"
     inkscape:window-maximized="1"
     inkscape:current-layer="g15" />
  <g
     inkscape:groupmode="layer"
     inkscape:label="Image"
     id="g15">
    <path
       style="fill:#000000"
       d="m 96,88 v -8 h 112 v 8 z"
       id="platform" />
    <path
       style="fill:#000000"
       d="m 232,104 v -8 h 112 v 8 z"
       id="platform" />
    <path
       style="fill:#000000"
       d="m 680,232 v -8 h 24 v -72 h -72 v -8 h 88 v 32 h 24 v 16 h -24 v 16 16 h 24 v 8 z"
       id="platform" />
    <path
       style="fill:#000000"
       d="m 472,120 v -16 h 8 v 16 z"
       id="spike" />
    <path
       style="fill:#000000"
       d="m 432,120 v -16 h 8 v 16 z"
       id="spike" />
    <path
       style="fill:#000000"
       d="m 720,192 v -8 h 24 v 8 z"
       id="spike" />
    <path
       style="fill:#000000"
       d="m 624,216 v -8 h 32 v 8 z"
       id="spike" />
    <path
       style="fill:#000000"
       d="m 464,272 v -8 h 160 v -16 h 32 v 16 h 112 v -16 h 32 v 16 h 24 v -64 h -56 v -8 h 56 v -40 h -72 v -8 h 72 V 88 H 568 V 16 H 16 v 40 h 56 v 8 H 16 v 56 h 416 v -16 h 8 v 16 h 32 v -16 h 8 v 16 h 120 v 56 h 16 v 24 h 40 v 16 h -32 v -8 h -24 v 24 H 568 V 160 H 328 v 72 H 296 V 160 H 16 v 104 h 416 v 8 z"
       id="level" />
  </g>
</svg>
